<?xml version="1.0" standalone="no"?>
<!DOCTYPE svg PUBLIC "-//W3C//DTD SVG 20010904//EN"
 "http://www.w3.org/TR/2001/REC-SVG-20010904/DTD/svg10.dtd">
<svg version="1.0" xmlns="http://www.w3.org/2000/svg"
 width="1000.000000pt" height="1000.000000pt" viewBox="0 0 500.000000 500.000000"
 preserveAspectRatio="xMidYMid meet">

<g transform="translate(0.000000,500.000000) scale(0.100000,-0.100000)"
fill="#000000" stroke="none">
<path d="M2438 3503 c-21 -2 -38 -9 -38 -15 0 -7 23 -50 50 -97 28 -47 155
-268 283 -491 l232 -405 110 -2 110 -3 -72 42 -72 42 -268 467 c-175 307 -273
468 -283 467 -8 -1 -32 -3 -52 -5z"/>
<path d="M2517 2203 c-4 -3 -7 -75 -7 -160 l0 -153 25 0 c24 0 25 2 25 65 0
61 1 65 23 65 18 0 28 -12 51 -65 25 -58 31 -65 57 -65 16 0 29 2 29 5 0 2
-14 33 -31 68 l-32 64 21 21 c51 51 32 133 -35 151 -43 12 -116 14 -126 4z
m124 -62 c23 -19 23 -21 9 -48 -12 -22 -24 -29 -53 -31 l-37 -3 0 50 c0 50 1
51 29 51 16 0 39 -9 52 -19z"/>
<path d="M1540 2045 l0 -155 25 0 c24 0 24 1 27 98 l3 97 64 -97 c43 -67 69
-98 82 -98 18 0 19 10 19 155 l0 155 -25 0 c-25 0 -25 0 -25 -97 -1 -113 1
-114 -82 21 -34 54 -53 76 -68 76 -19 0 -20 -6 -20 -155z"/>
<path d="M1940 2198 c0 -2 20 -70 44 -153 40 -138 46 -150 69 -153 23 -3 26 2
47 90 13 51 26 100 30 108 9 15 29 -43 50 -143 11 -54 13 -57 41 -57 21 0 29
5 29 18 1 9 18 79 39 155 l38 137 -27 0 c-27 0 -29 -3 -49 -91 -12 -50 -21
-98 -21 -106 0 -35 -16 3 -41 95 -23 88 -28 97 -51 100 -24 3 -26 -2 -42 -65
-35 -140 -38 -148 -46 -133 -4 8 -17 57 -30 108 -22 90 -23 92 -51 92 -16 0
-29 -1 -29 -2z"/>
<path d="M2900 2194 c0 -4 16 -37 37 -74 l36 -68 -28 -48 c-15 -27 -36 -64
-47 -81 l-20 -33 31 0 c28 0 34 6 58 55 15 30 30 55 33 55 3 0 18 -25 35 -55
25 -47 33 -55 58 -55 16 0 27 3 25 8 -2 4 -21 41 -42 83 l-39 77 41 71 41 71
-29 0 c-26 0 -33 -7 -56 -52 l-27 -53 -25 53 c-22 44 -30 52 -54 52 -15 0 -28
-3 -28 -6z"/>
<path d="M3280 2177 c0 -20 4 -22 40 -19 l40 4 0 -136 0 -136 30 0 30 0 0 135
0 135 40 0 c33 0 40 3 40 20 0 19 -7 20 -110 20 -108 0 -110 0 -110 -23z"/>
</g>
</svg>
